<svg xmlns="http://www.w3.org/2000/svg" width="20.036" height="26.998" viewBox="0 0 20.036 26.998">
  <g id="notebook" transform="translate(-66.008)">
    <g id="Сгруппировать_113" data-name="Сгруппировать 113" transform="translate(71.924 2.161)">
      <g id="Сгруппировать_112" data-name="Сгруппировать 112" transform="translate(0)">
        <path id="Контур_51" data-name="Контур 51" d="M182.621,40.99h-3.886a.529.529,0,1,0,0,1.059h3.886a.529.529,0,1,0,0-1.059Z" transform="translate(-178.206 -40.99)" fill="#ffffff"/>
      </g>
    </g>
    <g id="Сгруппировать_115" data-name="Сгруппировать 115" transform="translate(77.215 2.161)">
      <g id="Сгруппировать_114" data-name="Сгруппировать 114" transform="translate(0)">
        <path id="Контур_52" data-name="Контур 52" d="M279.06,40.99a.53.53,0,0,0,0,1.059A.53.53,0,0,0,279.06,40.99Z" transform="translate(-278.548 -40.99)" fill="#ffffff"/>
      </g>
    </g>
    <g id="Сгруппировать_117" data-name="Сгруппировать 117" transform="translate(66.008)">
      <g id="Сгруппировать_116" data-name="Сгруппировать 116" transform="translate(0)">
        <path id="Контур_53" data-name="Контур 53" d="M84.085,0H66.537a.529.529,0,0,0-.529.529V26.468a.529.529,0,0,0,.529.529H84.085a1.961,1.961,0,0,0,1.959-1.959V1.959A1.961,1.961,0,0,0,84.085,0ZM68.62,25.939H67.067V1.059H68.62Zm16.366-.9a.9.9,0,0,1-.9.9H69.679V1.059H84.085a.9.9,0,0,1,.9.9Z" transform="translate(-66.008)" fill="#ffffff"/>
      </g>
    </g>
    <g id="Сгруппировать_119" data-name="Сгруппировать 119" transform="translate(72.041 16.569)">
      <g id="Сгруппировать_118" data-name="Сгруппировать 118" transform="translate(0)">
        <path id="Контур_54" data-name="Контур 54" d="M190.478,314.227h-9.523a.529.529,0,1,0,0,1.059h9.523a.529.529,0,0,0,0-1.059Z" transform="translate(-180.425 -314.227)" fill="#ffffff"/>
      </g>
    </g>
    <g id="Сгруппировать_121" data-name="Сгруппировать 121" transform="translate(72.041 19.004)">
      <g id="Сгруппировать_120" data-name="Сгруппировать 120" transform="translate(0)">
        <path id="Контур_55" data-name="Контур 55" d="M190.478,360.408h-9.523a.529.529,0,0,0,0,1.059h9.523a.529.529,0,0,0,0-1.059Z" transform="translate(-180.425 -360.408)" fill="#ffffff"/>
      </g>
    </g>
    <g id="Сгруппировать_123" data-name="Сгруппировать 123" transform="translate(72.041 6.935)">
      <g id="Сгруппировать_122" data-name="Сгруппировать 122" transform="translate(0)">
        <path id="Контур_56" data-name="Контур 56" d="M190.478,131.514h-9.523a.529.529,0,0,0-.529.529v5.664a.529.529,0,0,0,.529.529h9.523a.529.529,0,0,0,.529-.529v-5.664A.529.529,0,0,0,190.478,131.514Zm-.529,5.664h-8.465v-4.605h8.465Z" transform="translate(-180.425 -131.514)" fill="#ffffff"/>
      </g>
    </g>
  </g>
</svg>
