<svg id="play-button" xmlns="http://www.w3.org/2000/svg" width="22.765" height="22.874" viewBox="0 0 22.765 22.874">
  <g id="Сгруппировать_21" data-name="Сгруппировать 21">
    <g id="Сгруппировать_20" data-name="Сгруппировать 20">
      <path id="Контур_20" data-name="Контур 20" d="M19.432,3.349A11.383,11.383,0,0,0,0,11.437,11.383,11.383,0,1,0,19.432,3.349Zm-.976,15.2a9.977,9.977,0,0,1-14.147,0,10.139,10.139,0,0,1-2.927-7.107,10,10,0,1,1,20,0A10.139,10.139,0,0,1,18.456,18.545Z" fill="#8a4f9f"/>
    </g>
  </g>
  <g id="Сгруппировать_23" data-name="Сгруппировать 23" transform="translate(6.802 5.213)">
    <g id="Сгруппировать_22" data-name="Сгруппировать 22">
      <path id="Контур_21" data-name="Контур 21" d="M111.295,81.985a3.127,3.127,0,0,1-.217-.272l-.054-.054a.974.974,0,0,0-.271-.191l-4.011-2.315a.027.027,0,0,1-.027-.027l-4.038-2.342a1.524,1.524,0,0,0-1.138-.163,1.589,1.589,0,0,0-.921.708,2.058,2.058,0,0,0-.163.354c-.027.082-.027.191-.054.3v9.5a1.484,1.484,0,0,0,1.491,1.5,1.222,1.222,0,0,0,.434-.082,1.653,1.653,0,0,0,.379-.191l3.984-2.315.054-.027,4.011-2.315c.027,0,.027-.027.054-.027a1.53,1.53,0,0,0,.65-.9A1.426,1.426,0,0,0,111.295,81.985Zm-1.165.844a.058.058,0,0,1-.054.054h-.027l-3.984,2.342-.027.027-3.984,2.315c-.027,0-.027.027-.054.027a.027.027,0,0,0-.027.027h-.027c-.027,0-.054-.027-.081-.027a.1.1,0,0,1-.027-.082V78.063c.027-.027.054-.054.081-.054H102l4.011,2.315.027.027,4.038,2.342.027.027.027.027Z" transform="translate(-100.4 -76.578)" fill="#8a4f9f"/>
    </g>
  </g>
</svg>
