<svg xmlns="http://www.w3.org/2000/svg" width="11.76" height="15.789" viewBox="0 0 11.76 15.789"><g transform="translate(3.472 1.264)"><g transform="translate(0)"><path d="M180.8,40.99h-2.28a.31.31,0,1,0,0,.619h2.28a.31.31,0,1,0,0-.619Z" transform="translate(-178.206 -40.99)" fill="#8a4f9f"/></g></g><g transform="translate(6.578 1.264)"><g transform="translate(0)"><path d="M278.849,40.99a.31.31,0,0,0,0,.619A.31.31,0,0,0,278.849,40.99Z" transform="translate(-278.548 -40.99)" fill="#8a4f9f"/></g></g><g transform="translate(0 0)"><path d="M76.618,0h-10.3a.31.31,0,0,0-.311.31v15.17a.31.31,0,0,0,.311.31h10.3a1.149,1.149,0,0,0,1.15-1.146V1.146A1.149,1.149,0,0,0,76.618,0ZM67.541,15.17h-.912V.619h.912Zm9.605-.527a.528.528,0,0,1-.528.527H68.162V.619h8.455a.528.528,0,0,1,.528.527Z" transform="translate(-66.008)" fill="#8a4f9f"/></g><g transform="translate(3.541 9.69)"><g transform="translate(0)"><path d="M186.325,314.227h-5.589a.31.31,0,1,0,0,.619h5.589a.31.31,0,1,0,0-.619Z" transform="translate(-180.425 -314.227)" fill="#8a4f9f"/></g></g><g transform="translate(3.541 11.114)"><g transform="translate(0)"><path d="M186.325,360.408h-5.589a.31.31,0,1,0,0,.619h5.589a.31.31,0,1,0,0-.619Z" transform="translate(-180.425 -360.408)" fill="#8a4f9f"/></g></g><g transform="translate(3.541 4.056)"><g transform="translate(0)"><path d="M186.325,131.514h-5.589a.31.31,0,0,0-.311.31v3.313a.31.31,0,0,0,.311.31h5.589a.31.31,0,0,0,.311-.31v-3.313A.31.31,0,0,0,186.325,131.514Zm-.311,3.313h-4.968v-2.693h4.968Z" transform="translate(-180.425 -131.514)" fill="#8a4f9f"/></g></g></svg>