<svg xmlns="http://www.w3.org/2000/svg" width="14.596" height="14.614" viewBox="0 0 14.596 14.614"><g transform="translate(0 0)"><path d="M12.459,2.14A7.315,7.315,0,1,0,14.6,7.307,7.271,7.271,0,0,0,12.459,2.14Zm-.626,9.708a6.413,6.413,0,0,1-9.07,0A6.466,6.466,0,0,1,.886,7.307a6.412,6.412,0,1,1,12.824,0A6.466,6.466,0,0,1,11.833,11.848Z" fill="#8a4f9f"/></g><g transform="translate(4.361 3.331)"><path d="M107.385,80.032a2,2,0,0,1-.139-.174l-.035-.035a.624.624,0,0,0-.174-.122l-2.572-1.479a.017.017,0,0,1-.017-.017l-2.589-1.5a.98.98,0,0,0-.73-.1,1.018,1.018,0,0,0-.591.452,1.312,1.312,0,0,0-.1.226c-.017.052-.017.122-.035.191v6.072a.95.95,0,0,0,.956.957.786.786,0,0,0,.278-.052,1.061,1.061,0,0,0,.243-.122l2.554-1.479.035-.017,2.572-1.479c.017,0,.017-.017.035-.017a.978.978,0,0,0,.417-.574A.908.908,0,0,0,107.385,80.032Zm-.747.539a.037.037,0,0,1-.035.035h-.017l-2.554,1.5-.017.017L101.46,83.6c-.017,0-.017.017-.035.017a.017.017,0,0,0-.017.017h-.017c-.017,0-.035-.017-.052-.017a.064.064,0,0,1-.017-.052V77.527c.017-.017.035-.035.052-.035h.052L104,78.971l.017.017,2.589,1.5.017.017.017.017Z" transform="translate(-100.4 -76.578)" fill="#8a4f9f"/></g></svg>