<?xml version="1.0" encoding="utf-8"?>
<!-- Generator: Adobe Illustrator 22.0.1, SVG Export Plug-In . SVG Version: 6.00 Build 0)  -->
<svg version="1.1" id="Слой_1" xmlns="http://www.w3.org/2000/svg" xmlns:xlink="http://www.w3.org/1999/xlink" x="0px" y="0px"
	 viewBox="0 0 512 512" style="enable-background:new 0 0 512 512;" xml:space="preserve">
<style type="text/css">
	.st0{fill:#8A4F9F;}
	.st1{fill:#FFFFFF;}
</style>
<path class="st0" d="M277.6,126.3c-0.1-0.3-0.1-0.5-0.1-0.6c0-2.1,3-3.5,5.3-3.5c1.4,0,2.5,0.4,2.8,1.7l9.9,34.9l9.8-34.9
	c0.3-1.2,1.4-1.7,2.8-1.7c2.3,0,5.3,1.5,5.3,3.5c0,0.2-0.1,0.4-0.1,0.6l-12.4,40.5c-0.6,1.9-3,2.8-5.4,2.8s-4.8-0.9-5.4-2.8
	L277.6,126.3z"/>
<path class="st0" d="M317.7,124.7c0-1.4,1.1-2.6,2.7-2.6h12.7c8.4,0,15.3,3.2,15.3,13.5c0,7.4-3.6,11.4-8.4,12.9l8.4,15.6
	c0.3,0.3,0.3,0.8,0.3,1c0,2.1-2.8,4.4-5.2,4.4c-1.2,0-2.3-0.7-2.9-2l-9.1-17.8h-5.4v16.8c0,1.7-2.1,2.6-4.2,2.6
	c-2.1,0-4.2-0.9-4.2-2.6L317.7,124.7L317.7,124.7z M326.1,129.5v13.7h7.1c4.2,0,6.9-1.7,6.9-6.8s-2.7-6.9-6.9-6.9H326.1z"/>
<path class="st0" d="M496.4,484.5l-4.3-25c-0.7-4.1-4.6-6.8-8.7-6.1s-6.8,4.6-6.1,8.7l4.3,25c0.4,2.5-0.2,5-1.9,7c-1.7,2-4,3-6.5,3
	h-52.6l-9.4-57.7c-0.7-4.1-4.5-6.9-8.6-6.2c-4.1,0.7-6.9,4.5-6.2,8.6l9,55.3H106.6l9-55.3c0.7-4.1-2.1-7.9-6.2-8.6
	c-4.1-0.7-7.9,2.1-8.6,6.2L91.4,497H38.9c-2.6,0-4.9-1.1-6.5-3s-2.3-4.4-1.9-7l10.2-60c3.5-20.5,17.1-37.9,35.7-46.4
	c1-0.2,1.9-0.6,2.7-1.2c2-0.8,4.2-1.5,6.3-2.2l90-19.1c23.9,16.1,51.7,24.5,80.6,24.5s56.7-8.5,80.6-24.5l90,19.1
	c23.1,6.5,40.7,26,44.7,49.7c0.7,4.1,4.6,6.8,8.7,6.1s6.8-4.6,6.1-8.7c-5-29.5-26.9-53.7-55.7-61.7c-0.1,0-0.3-0.1-0.5-0.1
	l-93.4-19.8l-9-1.9c-5.8-1.2-12.3-9.1-12.3-18.1v-26c13.8-12.4,28.3-27,34.4-35.9c10.3-15.2,16.3-32.9,17.4-51.3l0.3-4.8h3.5
	c6.1,0,11.4-3.9,13.3-9.4h7.7c8.5,0,15.4-6.9,15.4-15.4v-65c0-8.5-6.9-15.4-15.4-15.4h-7.7c-1.9-5.2-6.6-8.9-12.3-9.4
	c-2.7-20.1-11.4-38.9-24.9-53.6C313.8,0.5,265.3,0,262.5,0c0,0,0,0-0.1,0h-13c-2.1,0-51.1,0.3-84.4,36.6
	c-13.4,14.7-22.1,33.5-24.9,53.6c-5.7,0.4-10.5,4.2-12.3,9.4h-7.7c-8.5,0-15.4,6.9-15.4,15.4v25H93.1c-14.2,0-25.7,11.5-25.7,25.7
	v202.6c-21.6,11-37.3,31.8-41.4,56.2l-10.2,60c-1.2,6.9,0.7,13.8,5.2,19.2c4.5,5.3,11.1,8.4,18,8.4h434.3c7,0,13.5-3.1,18-8.4
	C495.6,498.3,497.5,491.3,496.4,484.5z M384.9,114.6h6.9c0.2,0,0.4,0.2,0.4,0.4v65c0,0.2-0.2,0.4-0.4,0.4h-6.9V114.6z M316.7,352.6
	c-18.6,9.9-39.4,15.1-60.7,15.1c-21.4,0-42.1-5.2-60.7-15.1c10.4-6.1,16.5-18.9,16.5-29.8v-13.2c6.1,4.9,11.3,8.5,14.2,9.7
	c9.5,4.1,19.8,6.1,30,6.1c10.2,0,20.5-2,30-6.1c2.9-1.3,8.1-4.8,14.2-9.7v13.2C300.2,333.7,306.4,346.6,316.7,352.6z M176.2,46.7
	C204.9,15.4,249.1,15,249.5,15h13h0c0.7,0,44.5,0.3,73.3,31.8c10.9,11.9,18.1,27.1,20.8,43.4H155.4C158,73.9,165.3,58.7,176.2,46.7z
	 M142.1,105.2h4.9h0.1h222.8v84.7h-83.4c-4,0-7.9-1.1-11.4-3.2c-11.8-7.1-26.4-7.1-38.2,0c-3.4,2.1-7.4,3.2-11.4,3.2H212
	c-4.1,0-7.5,3.4-7.5,7.5s3.4,7.5,7.5,7.5h13.5c6.7,0,13.3-1.8,19.1-5.3c7-4.2,15.7-4.2,22.7,0c5.8,3.5,12.4,5.3,19.1,5.3h65.8
	l-0.2,3.9c-0.9,15.7-6,30.8-14.8,43.7c-10.8,15.9-50.2,50.2-57.1,53.1c-15.3,6.5-32.9,6.5-48.2,0c-2.3-1-10.5-7-22.5-17.6
	c-0.1-0.1-0.1-0.1-0.2-0.2c-1.5-1.3-3-2.7-4.6-4.1c-13.8-12.5-25.2-24.5-29.7-31.2c-8.8-12.9-13.9-28-14.8-43.7l-0.2-3.9H177
	c4.1,0,7.5-3.4,7.5-7.5c0-4.1-3.4-7.5-7.5-7.5h-35V105.2z M119.8,115c0-0.2,0.2-0.4,0.4-0.4h6.9v65.9h-6.9c-0.2,0-0.4-0.2-0.4-0.4
	V115z M82.3,165.8c0-5.9,4.8-10.7,10.7-10.7h11.7v25c0,8.5,6.9,15.4,15.4,15.4h7.7c2,5.5,7.2,9.4,13.4,9.4h3.5l0.3,4.8
	c1,18.4,7,36.1,17.4,51.3c6.1,8.9,20.5,23.5,34.4,35.9v26c0,8.9-6.5,16.9-12.4,18.1l-9,1.9l-93.1,19.8V165.8z"/>
</svg>
