<svg xmlns="http://www.w3.org/2000/svg" width="13.936" height="13.886" viewBox="0 0 13.936 13.886"><path d="M13.663,5.661H11.921a.272.272,0,0,0-.272.271V7.3a.272.272,0,0,0,.544,0V6.2h1.2v7.14h-1.2V9.336a.272.272,0,0,0-.544,0v4.007H11.1V7.729a.272.272,0,0,0-.272-.271H9.091a.272.272,0,0,0-.272.271v5.614H8.274V9.628A.272.272,0,0,0,8,9.357H6.26a.272.272,0,0,0-.272.271v3.716H5.444v-2.16a.272.272,0,0,0-.272-.271H3.429a.272.272,0,0,0-.272.271v2.16H.817a.272.272,0,0,1-.272-.271V.814A.272.272,0,0,1,.817.542H7.838v1.79a.816.816,0,0,0,.817.814h1.8V6.482a.272.272,0,0,0,.544,0V2.875a.271.271,0,0,0-.08-.192L8.3.079A.273.273,0,0,0,8.11,0H.817A.816.816,0,0,0,0,.814V13.072a.816.816,0,0,0,.817.814H13.663a.272.272,0,0,0,.272-.271V5.933A.272.272,0,0,0,13.663,5.661ZM8.382.926,10.066,2.6H8.655a.272.272,0,0,1-.272-.271ZM4.9,13.343H3.7V11.455H4.9Zm2.831,0h-1.2V9.9h1.2Zm2.831,0h-1.2V8h1.2Z" fill="#8a4f9f"/><g transform="translate(11.649 7.998)"><path d="M428.465,294.97a.27.27,0,1,0,.08.192A.273.273,0,0,0,428.465,294.97Z" transform="translate(-428 -294.89)" fill="#8a4f9f"/></g><g transform="translate(1.459 1.484)"><path d="M56.105,54.729a.272.272,0,0,0-.272.271v.488a2.5,2.5,0,1,0,2.761,2.751h.49a.272.272,0,0,0,.272-.271A3.248,3.248,0,0,0,56.105,54.729Zm0,5.191a1.952,1.952,0,0,1-.272-3.885v1.933a.272.272,0,0,0,.272.271h1.94A1.96,1.96,0,0,1,56.105,59.92Zm.272-2.223h0V55.285A2.706,2.706,0,0,1,58.8,57.7Z" transform="translate(-53.602 -54.729)" fill="#8a4f9f"/></g><g transform="translate(1.47 7.98)"><path d="M59.471,294.25h-5.2a.271.271,0,1,0,0,.542h5.2a.271.271,0,1,0,0-.542Z" transform="translate(-54 -294.25)" fill="#8a4f9f"/></g><g transform="translate(1.47 9.289)"><path d="M56.014,342.5H54.272a.271.271,0,1,0,0,.542h1.742a.271.271,0,1,0,0-.542Z" transform="translate(-54 -342.5)" fill="#8a4f9f"/></g><g transform="translate(4.575 9.289)"><path d="M168.545,342.579a.273.273,0,0,0-.385,0,.27.27,0,0,0,0,.383.272.272,0,1,0,.385-.383Z" transform="translate(-168.08 -342.5)" fill="#8a4f9f"/></g></svg>