<svg id="analytics" xmlns="http://www.w3.org/2000/svg" width="26.104" height="26.104" viewBox="0 0 26.104 26.104">
  <g id="Сгруппировать_101" data-name="Сгруппировать 101">
    <g id="Сгруппировать_100" data-name="Сгруппировать 100">
      <path id="Контур_45" data-name="Контур 45" d="M25.595,10.643H22.332a.51.51,0,0,0-.51.51v2.575a.51.51,0,0,0,1.02,0V11.663h2.243V25.085H22.841V17.552a.51.51,0,0,0-1.02,0v7.533H20.8V14.531a.51.51,0,0,0-.51-.51H17.029a.51.51,0,0,0-.51.51V25.085H15.5V18.1a.51.51,0,0,0-.51-.51H11.727a.51.51,0,0,0-.51.51v6.985H10.2v-4.06a.51.51,0,0,0-.51-.51H6.424a.51.51,0,0,0-.51.51v4.06H1.53a.51.51,0,0,1-.51-.51V1.53a.51.51,0,0,1,.51-.51H14.683V4.385a1.531,1.531,0,0,0,1.53,1.53h3.365v6.271a.51.51,0,1,0,1.02,0V5.4a.51.51,0,0,0-.149-.361L15.553.149A.51.51,0,0,0,15.192,0H1.53A1.531,1.531,0,0,0,0,1.53V24.575A1.531,1.531,0,0,0,1.53,26.1H25.595a.51.51,0,0,0,.51-.51V11.153A.51.51,0,0,0,25.595,10.643ZM15.7,1.741l3.154,3.154H16.212a.51.51,0,0,1-.51-.51ZM9.177,25.085H6.934v-3.55H9.177Zm5.3,0H12.236V18.61H14.48Zm5.3,0H17.539V15.041h2.243Z" fill="#fff"/>
    </g>
  </g>
  <g id="Сгруппировать_103" data-name="Сгруппировать 103" transform="translate(21.822 15.035)">
    <g id="Сгруппировать_102" data-name="Сгруппировать 102">
      <path id="Контур_46" data-name="Контур 46" d="M428.87,295.039a.51.51,0,1,0,.149.36A.512.512,0,0,0,428.87,295.039Z" transform="translate(-428 -294.89)" fill="#fff"/>
    </g>
  </g>
  <g id="Сгруппировать_105" data-name="Сгруппировать 105" transform="translate(2.733 2.79)">
    <g id="Сгруппировать_104" data-name="Сгруппировать 104">
      <path id="Контур_47" data-name="Контур 47" d="M58.291,54.729a.51.51,0,0,0-.51.51v.917a4.69,4.69,0,1,0,5.172,5.172h.917a.51.51,0,0,0,.51-.51A6.1,6.1,0,0,0,58.291,54.729Zm0,9.758a3.67,3.67,0,0,1-.51-7.3v3.634a.51.51,0,0,0,.51.51h3.634A3.675,3.675,0,0,1,58.291,64.487Zm.51-4.179h0V55.774a5.079,5.079,0,0,1,4.534,4.534Z" transform="translate(-53.602 -54.729)" fill="#fff"/>
    </g>
  </g>
  <g id="Сгруппировать_107" data-name="Сгруппировать 107" transform="translate(2.753 15.002)">
    <g id="Сгруппировать_106" data-name="Сгруппировать 106">
      <path id="Контур_48" data-name="Контур 48" d="M64.248,294.25H54.51a.51.51,0,0,0,0,1.02h9.738a.51.51,0,1,0,0-1.02Z" transform="translate(-54 -294.25)" fill="#fff"/>
    </g>
  </g>
  <g id="Сгруппировать_109" data-name="Сгруппировать 109" transform="translate(2.753 17.462)">
    <g id="Сгруппировать_108" data-name="Сгруппировать 108">
      <path id="Контур_49" data-name="Контур 49" d="M57.773,342.5H54.51a.51.51,0,1,0,0,1.02h3.263a.51.51,0,1,0,0-1.02Z" transform="translate(-54 -342.5)" fill="#fff"/>
    </g>
  </g>
  <g id="Сгруппировать_111" data-name="Сгруппировать 111" transform="translate(8.57 17.462)">
    <g id="Сгруппировать_110" data-name="Сгруппировать 110">
      <path id="Контур_50" data-name="Контур 50" d="M168.95,342.649a.51.51,0,1,0,.149.36A.514.514,0,0,0,168.95,342.649Z" transform="translate(-168.08 -342.5)" fill="#fff"/>
    </g>
  </g>
</svg>
