<svg xmlns="http://www.w3.org/2000/svg" width="14.459" height="14.419" viewBox="0 0 14.459 14.419"><g transform="translate(0 0)"><g transform="translate(0)"><path d="M14.029,3.1l-.351-.109a1.115,1.115,0,0,0-.285-.044.943.943,0,0,0-.877.634l-.2.59V3.714a.269.269,0,0,0-.088-.175L8.635.066A.237.237,0,0,0,8.482,0H1.444a.207.207,0,0,0-.219.218V.9H.413a.207.207,0,0,0-.219.218V14.2a.207.207,0,0,0,.219.218H11.069a.207.207,0,0,0,.219-.218v-.677H12.1a.207.207,0,0,0,.219-.218V10.355l.614-.83.022-.066L14.6,4.238A.871.871,0,0,0,14.029,3.1ZM8.7.743,11.573,3.5H8.7Zm2.149,13.239H.632V1.333h.592V13.3a.207.207,0,0,0,.219.218h9.406v.459Zm1.052-.9H1.663V.437h6.6V3.714a.207.207,0,0,0,.219.218H11.9V5.571L10.871,8.8V8.87l.044,2.775a.215.215,0,0,0,.395.109l.592-.786v2.119Zm-.57-2.119-.044-1.813,1.1.35ZM14.2,4.107l-1.579,5L11.354,8.7l1.579-4.981a.477.477,0,0,1,.592-.306l.351.109A.462.462,0,0,1,14.2,4.107Z" transform="translate(-0.194)" fill="#8a4f9f"/><path d="M94.53,46.336h3.157a.207.207,0,0,0,.219-.218V43.889a.207.207,0,0,0-.219-.218H94.53a.207.207,0,0,0-.219.218v2.228A.235.235,0,0,0,94.53,46.336Zm.219-2.228h2.719V45.9H94.75Z" transform="translate(-91.57 -42.404)" fill="#8a4f9f"/><path d="M79.472,191.685h6.665a.218.218,0,1,0,0-.437H79.472a.218.218,0,1,0,0,.437Z" transform="translate(-76.951 -185.699)" fill="#8a4f9f"/><path d="M79.472,246.65h6.665a.218.218,0,1,0,0-.437H79.472a.218.218,0,1,0,0,.437Z" transform="translate(-76.951 -239.069)" fill="#8a4f9f"/><path d="M79.472,301.614h6.665a.218.218,0,1,0,0-.437H79.472a.218.218,0,1,0,0,.437Z" transform="translate(-76.951 -292.438)" fill="#8a4f9f"/><path d="M86.335,356.361a.207.207,0,0,0-.219-.218H79.472a.218.218,0,1,0,0,.437h6.665A.216.216,0,0,0,86.335,356.361Z" transform="translate(-76.951 -345.809)" fill="#8a4f9f"/><path d="M229.606,411.106H226.3a.218.218,0,1,0,0,.437h3.289a.207.207,0,0,0,.219-.218A.2.2,0,0,0,229.606,411.106Z" transform="translate(-219.499 -399.178)" fill="#8a4f9f"/></g></g></svg>