<svg id="Слой_1" data-name="Слой 1" xmlns="http://www.w3.org/2000/svg" viewBox="0 0 90.75 79.41"><defs><style>.cls-1{fill:#8a4f9f;}.cls-2{fill:#231f20;}.cls-3{fill:#8dc63f;}</style></defs><title>55Монтажная область 1</title><path class="cls-1" d="M.11,0,41.65.13A9.26,9.26,0,0,0,36.56,3a7.7,7.7,0,0,0-2.14,4.56,7.36,7.36,0,0,0,.94,4C37.1,14.76,45,32,55.86,55.82Q50.64,67.41,45.41,79C28.84,45.21,16.48,20.54,13.28,14.07c-.49-1-2.87-5.8-6.28-8.8C4.88,3.4,2.27,1.51,2.27,1.51,1.38.86.63.35.11,0Z"/><path class="cls-2" d="M58.21.31h0s1,.14,1,.15C68.78,1.69,72,7.67,72,7.67a10.43,10.43,0,0,1,1.17,4.5c.62,10.59-15.67,35.89-17.44,38.62.42.91.85,1.81,1.27,2.72C68.83,28.84,77.83,11.09,79.45,8.18a13.41,13.41,0,0,1,5.63-5.79L83,3.76a24.86,24.86,0,0,1,5.13-2.65C89,.78,89.84.52,90.64.31Z"/><path class="cls-3" d="M44.29,36.23a1,1,0,0,1-.12.37,15.74,15.74,0,0,1-4.65,4.47,11.23,11.23,0,0,1-6,2.17c-2.6,0-3.9-1.64-3.9-4.9q0-3.23,2.79-7.07,3-4.1,6.14-4.09a1.36,1.36,0,0,1,1.08.56,1.8,1.8,0,0,1,.47,1.17c0,1.29-1,2.84-2.92,4.65a15.08,15.08,0,0,1-4.77,3.23,10,10,0,0,0-.44,2.6c0,1.7.77,2.54,2.3,2.54a9.15,9.15,0,0,0,4.9-1.79,18.72,18.72,0,0,0,4-3.54c.29-.41.58-.62.86-.62A.22.22,0,0,1,44.29,36.23Zm-6.07-6.57a.66.66,0,0,0-.75-.75c-.62,0-1.53,1-2.73,2.86a15.43,15.43,0,0,0-1.92,3.78,11,11,0,0,0,3.35-2.42C37.53,31.81,38.22,30.65,38.22,29.66Z"/><path class="cls-3" d="M68.84,9q0,6.57-14.81,23.93A24.13,24.13,0,0,0,53.65,37q0,4.72,2,4.72c.87,0,2.14-1,3.81-3a23.48,23.48,0,0,1,2.7-3c.12,0,.18.11.18.31a1.94,1.94,0,0,1-.31.87q-3.9,6.27-7.56,6.26-3.23,0-3.22-4.9a20.14,20.14,0,0,1,.37-3.59q-4.84,8.61-8.12,8.62c-1.29,0-1.93-.71-1.93-2.11q0-3.84,4-8.93,4.22-5.46,7.88-5.08A81.18,81.18,0,0,1,58,14.65Q62.21,6,66.24,6C68,6,68.84,7,68.84,9ZM52.72,30a.53.53,0,0,0-.12-.22c-.08-.1-.31-.15-.68-.15-1.66,0-3.45,1.28-5.4,3.84S43.61,38.21,43.61,40c0,.91.31,1.36.93,1.36q1.37,0,3.53-2.79a45.54,45.54,0,0,0,2.67-4.27C52.06,31.89,52.72,30.49,52.72,30Zm13.71-21c0-.9-.38-1.36-1.12-1.36q-3,0-6.88,10.11a94.36,94.36,0,0,0-4,13.26Q66.43,14.78,66.43,9.07Z"/></svg>